<svg width="31" height="10" viewBox="0 0 31 10" fill="none" xmlns="http://www.w3.org/2000/svg">
<path d="M0.224432 9.375V2.82955H2.03977V9.375H0.224432ZM1.13636 1.9858C0.866477 1.9858 0.634943 1.89631 0.441761 1.71733C0.25142 1.53551 0.15625 1.31818 0.15625 1.06534C0.15625 0.815341 0.25142 0.600852 0.441761 0.421875C0.634943 0.240057 0.866477 0.149147 1.13636 0.149147C1.40625 0.149147 1.63636 0.240057 1.8267 0.421875C2.01989 0.600852 2.11648 0.815341 2.11648 1.06534C2.11648 1.31818 2.01989 1.53551 1.8267 1.71733C1.63636 1.89631 1.40625 1.9858 1.13636 1.9858ZM6.45135 9.50284C5.78089 9.50284 5.20419 9.3608 4.72124 9.0767C4.24112 8.78977 3.8718 8.39205 3.61328 7.88352C3.3576 7.375 3.22976 6.78977 3.22976 6.12784C3.22976 5.45739 3.35902 4.86932 3.61754 4.36364C3.87891 3.85511 4.24964 3.45881 4.72976 3.17472C5.20987 2.88778 5.78089 2.74432 6.44283 2.74432C7.01385 2.74432 7.51385 2.84801 7.94283 3.0554C8.3718 3.26278 8.71129 3.55398 8.96129 3.92898C9.21129 4.30398 9.34908 4.74432 9.37464 5.25H7.66158C7.61328 4.9233 7.48544 4.66051 7.27805 4.46165C7.07351 4.25994 6.80504 4.15909 6.47266 4.15909C6.19141 4.15909 5.94567 4.2358 5.73544 4.3892C5.52805 4.53977 5.36612 4.75994 5.24964 5.04972C5.13317 5.33949 5.07493 5.69034 5.07493 6.10227C5.07493 6.51989 5.13175 6.875 5.24538 7.16761C5.36186 7.46023 5.52521 7.68324 5.73544 7.83665C5.94567 7.99006 6.19141 8.06676 6.47266 8.06676C6.68004 8.06676 6.86612 8.02415 7.0309 7.93892C7.19851 7.85369 7.33629 7.73011 7.44425 7.56818C7.55504 7.40341 7.62749 7.20597 7.66158 6.97585H9.37464C9.34624 7.47585 9.20987 7.91619 8.96555 8.29688C8.72408 8.67472 8.39027 8.97017 7.96413 9.18324C7.538 9.39631 7.03374 9.50284 6.45135 9.50284ZM13.4943 9.50284C12.8324 9.50284 12.2599 9.36222 11.777 9.08097C11.2969 8.79687 10.9261 8.40199 10.6648 7.89631C10.4034 7.38778 10.2727 6.7983 10.2727 6.12784C10.2727 5.4517 10.4034 4.8608 10.6648 4.35511C10.9261 3.84659 11.2969 3.4517 11.777 3.17045C12.2599 2.88636 12.8324 2.74432 13.4943 2.74432C14.1562 2.74432 14.7273 2.88636 15.2074 3.17045C15.6903 3.4517 16.0625 3.84659 16.3239 4.35511C16.5852 4.8608 16.7159 5.4517 16.7159 6.12784C16.7159 6.7983 16.5852 7.38778 16.3239 7.89631C16.0625 8.40199 15.6903 8.79687 15.2074 9.08097C14.7273 9.36222 14.1562 9.50284 13.4943 9.50284ZM13.5028 8.09659C13.804 8.09659 14.0554 8.01136 14.2571 7.84091C14.4588 7.66761 14.6108 7.43182 14.7131 7.13352C14.8182 6.83523 14.8707 6.49574 14.8707 6.11506C14.8707 5.73438 14.8182 5.39489 14.7131 5.09659C14.6108 4.7983 14.4588 4.5625 14.2571 4.3892C14.0554 4.21591 13.804 4.12926 13.5028 4.12926C13.1989 4.12926 12.9432 4.21591 12.7358 4.3892C12.5313 4.5625 12.3764 4.7983 12.2713 5.09659C12.169 5.39489 12.1179 5.73438 12.1179 6.11506C12.1179 6.49574 12.169 6.83523 12.2713 7.13352C12.3764 7.43182 12.5313 7.66761 12.7358 7.84091C12.9432 8.01136 13.1989 8.09659 13.5028 8.09659ZM19.7116 5.59091V9.375H17.8963V2.82955H19.6264V3.98438H19.7031C19.848 3.60369 20.0909 3.30256 20.4318 3.08097C20.7727 2.85653 21.1861 2.74432 21.6719 2.74432C22.1264 2.74432 22.5227 2.84375 22.8608 3.04261C23.1989 3.24148 23.4616 3.52557 23.6491 3.89489C23.8366 4.26136 23.9304 4.69886 23.9304 5.20739V9.375H22.1151V5.53125C22.1179 5.13068 22.0156 4.81818 21.8082 4.59375C21.6009 4.36648 21.3153 4.25284 20.9517 4.25284C20.7074 4.25284 20.4915 4.3054 20.304 4.41051C20.1193 4.51562 19.9744 4.66903 19.8693 4.87074C19.767 5.0696 19.7145 5.30966 19.7116 5.59091ZM30.8072 4.69602L29.1452 4.7983C29.1168 4.65625 29.0558 4.52841 28.962 4.41477C28.8683 4.2983 28.7447 4.20597 28.5913 4.13778C28.4407 4.06676 28.2603 4.03125 28.0501 4.03125C27.7688 4.03125 27.5316 4.09091 27.3384 4.21023C27.1452 4.3267 27.0487 4.48295 27.0487 4.67898C27.0487 4.83523 27.1112 4.96733 27.2362 5.07528C27.3612 5.18324 27.5756 5.26989 27.8796 5.33523L29.0643 5.57386C29.7006 5.70455 30.1751 5.91477 30.4876 6.20455C30.8001 6.49432 30.9563 6.875 30.9563 7.34659C30.9563 7.77557 30.8299 8.15199 30.5771 8.47585C30.3271 8.79972 29.9833 9.05256 29.5458 9.23438C29.1112 9.41335 28.6097 9.50284 28.0415 9.50284C27.1751 9.50284 26.4847 9.32244 25.9705 8.96165C25.4592 8.59801 25.1594 8.10369 25.0714 7.47869L26.8569 7.38494C26.9109 7.64915 27.0415 7.85085 27.2489 7.99006C27.4563 8.12642 27.7219 8.1946 28.0458 8.1946C28.364 8.1946 28.6197 8.13352 28.8129 8.01136C29.0089 7.88636 29.1083 7.72585 29.1112 7.52983C29.1083 7.36506 29.0387 7.23011 28.9023 7.125C28.766 7.01705 28.5558 6.93466 28.2717 6.87784L27.1381 6.65199C26.4989 6.52415 26.0231 6.30256 25.7106 5.98722C25.4009 5.67187 25.2461 5.26989 25.2461 4.78125C25.2461 4.3608 25.3597 3.99858 25.587 3.6946C25.8171 3.39062 26.1396 3.15625 26.5543 2.99148C26.9719 2.8267 27.4606 2.74432 28.0202 2.74432C28.8469 2.74432 29.4975 2.91903 29.9719 3.26847C30.4492 3.6179 30.7276 4.09375 30.8072 4.69602Z" fill="black"/>
</svg>
