<svg width="24" height="24" viewBox="0 0 24 24" fill="none" xmlns="http://www.w3.org/2000/svg">
<path d="M15.7089 8.75492C15.6243 8.5358 15.4947 8.33683 15.3286 8.17082C15.1624 8.00482 14.9633 7.87547 14.7441 7.79109C14.4422 7.6793 14.1234 7.62021 13.8016 7.61641C13.2663 7.59203 13.1059 7.58594 11.75 7.58594C10.3941 7.58594 10.2337 7.59203 9.69844 7.61641C9.37624 7.62009 9.05708 7.67918 8.75492 7.79109C8.5358 7.8757 8.33683 8.00526 8.17083 8.17144C8.00483 8.33762 7.87547 8.53673 7.7911 8.75594C7.6793 9.05778 7.62021 9.37658 7.61641 9.69844C7.59203 10.2337 7.58594 10.3941 7.58594 11.75C7.58594 13.1059 7.59203 13.2663 7.61641 13.8016C7.6201 14.1238 7.67919 14.4429 7.7911 14.7451C7.8757 14.9642 8.00527 15.1632 8.17144 15.3292C8.33762 15.4952 8.53673 15.6245 8.75594 15.7089C9.05778 15.8207 9.37659 15.8798 9.69844 15.8836C10.2337 15.908 10.3941 15.913 11.75 15.913C13.1059 15.913 13.2663 15.908 13.8016 15.8826C14.1237 15.8792 14.4429 15.8205 14.7451 15.7089C14.9642 15.6243 15.1632 15.4947 15.3292 15.3286C15.4952 15.1624 15.6245 14.9633 15.7089 14.7441C15.8207 14.4422 15.8798 14.1234 15.8836 13.8016C15.908 13.2663 15.913 13.1059 15.913 11.75C15.913 10.3941 15.908 10.2337 15.8826 9.69844C15.8792 9.3763 15.8205 9.05714 15.7089 8.75492ZM11.75 14.3581C11.2342 14.3581 10.7299 14.2052 10.301 13.9186C9.8721 13.632 9.53781 13.2247 9.34041 12.7481C9.14301 12.2715 9.09136 11.7471 9.19199 11.2412C9.29263 10.7353 9.54103 10.2705 9.90578 9.90578C10.2705 9.54102 10.7353 9.29262 11.2412 9.19199C11.7471 9.09135 12.2715 9.143 12.7481 9.3404C13.2247 9.53781 13.632 9.8721 13.9186 10.301C14.2052 10.7299 14.3581 11.2342 14.3581 11.75C14.3581 12.4417 14.0833 13.1051 13.5942 13.5942C13.1051 14.0833 12.4417 14.3581 11.75 14.3581ZM14.4607 9.64867C14.3402 9.64867 14.2224 9.61293 14.1222 9.54597C14.0219 9.47901 13.9438 9.38384 13.8977 9.27249C13.8516 9.16114 13.8395 9.03862 13.863 8.92041C13.8866 8.80221 13.9446 8.69362 14.0298 8.6084C14.115 8.52318 14.2236 8.46514 14.3418 8.44163C14.46 8.41812 14.5826 8.43018 14.6939 8.47631C14.8053 8.52243 14.9004 8.60053 14.9674 8.70075C15.0343 8.80096 15.0701 8.91877 15.0701 9.0393C15.0701 9.20091 15.0059 9.35591 14.8916 9.47019C14.7773 9.58447 14.6223 9.64867 14.4607 9.64867ZM13.443 11.75C13.443 12.0849 13.3438 12.4122 13.1577 12.6906C12.9717 12.969 12.7073 13.186 12.3979 13.3142C12.0885 13.4423 11.7481 13.4758 11.4197 13.4105C11.0913 13.3452 10.7896 13.1839 10.5528 12.9472C10.3161 12.7104 10.1548 12.4087 10.0895 12.0803C10.0242 11.7519 10.0577 11.4115 10.1858 11.1021C10.314 10.7927 10.531 10.5283 10.8094 10.3423C11.0878 10.1562 11.4152 10.057 11.75 10.057C12.199 10.057 12.6297 10.2353 12.9472 10.5528C13.2647 10.8703 13.443 11.301 13.443 11.75ZM11.75 2C9.82164 2 7.93657 2.57183 6.33319 3.64317C4.72982 4.71451 3.48013 6.23726 2.74218 8.01884C2.00422 9.80041 1.81114 11.7608 2.18735 13.6521C2.56355 15.5434 3.49215 17.2807 4.85571 18.6443C6.21927 20.0079 7.95656 20.9364 9.84787 21.3127C11.7392 21.6889 13.6996 21.4958 15.4812 20.7578C17.2627 20.0199 18.7855 18.7702 19.8568 17.1668C20.9282 15.5634 21.5 13.6784 21.5 11.75C21.5 9.16414 20.4728 6.68419 18.6443 4.85571C16.8158 3.02723 14.3359 2 11.75 2ZM16.7977 13.8432C16.7891 14.2646 16.709 14.6815 16.561 15.0762C16.4306 15.4134 16.2311 15.7197 15.9754 15.9754C15.7197 16.2311 15.4134 16.4306 15.0762 16.561C14.6818 16.7089 14.2653 16.7889 13.8442 16.7977C13.3019 16.822 13.1292 16.8281 11.75 16.8281C10.3708 16.8281 10.1981 16.822 9.65578 16.7977C9.23471 16.7889 8.81816 16.7089 8.42383 16.561C8.08656 16.4306 7.78027 16.2311 7.52457 15.9754C7.26887 15.7197 7.06942 15.4134 6.93899 15.0762C6.79107 14.6818 6.71106 14.2653 6.70235 13.8442C6.67797 13.3019 6.67188 13.1292 6.67188 11.75C6.67188 10.3708 6.67797 10.1981 6.70235 9.65578C6.71074 9.23477 6.7904 8.81822 6.93797 8.42383C7.0684 8.08627 7.26795 7.77972 7.52384 7.52383C7.77972 7.26795 8.08628 7.06839 8.42383 6.93797C8.81822 6.7904 9.23477 6.71073 9.65578 6.70234C10.1981 6.67797 10.3708 6.67187 11.75 6.67187C13.1292 6.67187 13.3019 6.67797 13.8442 6.70234C14.2652 6.71073 14.6818 6.7904 15.0762 6.93797C15.4135 7.06851 15.7199 7.26812 15.9756 7.524C16.2313 7.77988 16.4307 8.08637 16.561 8.42383C16.7089 8.81816 16.7889 9.23471 16.7977 9.65578C16.822 10.1981 16.8281 10.3708 16.8281 11.75C16.8281 13.1292 16.822 13.3009 16.7977 13.8432Z" fill="white"/>
</svg>
