<svg width="24" height="24" viewBox="0 0 24 24" fill="none" xmlns="http://www.w3.org/2000/svg">
<path d="M11.75 21.5C17.1348 21.5 21.5 17.1348 21.5 11.75C21.5 6.36522 17.1348 2 11.75 2C6.36522 2 2 6.36522 2 11.75C2 17.1348 6.36522 21.5 11.75 21.5Z" fill="white"/>
<path d="M9.94739 9.01522C10.0519 9.01802 10.1677 9.02367 10.278 9.26834C10.3511 9.43122 10.4742 9.73108 10.5745 9.97534C10.6526 10.1654 10.7168 10.3218 10.7328 10.3538C10.7695 10.4269 10.7922 10.5113 10.7441 10.6097C10.7385 10.6213 10.7332 10.6324 10.728 10.6431C10.6895 10.723 10.662 10.78 10.5972 10.8544C10.5706 10.885 10.5428 10.9185 10.5152 10.9519C10.4666 11.0107 10.4183 11.0691 10.3768 11.1103C10.3034 11.1833 10.2271 11.2622 10.3118 11.4084C10.3966 11.5546 10.6933 12.0355 11.1313 12.4235C11.6021 12.8427 12.0115 13.0194 12.2184 13.1086C12.2586 13.126 12.2911 13.1401 12.315 13.1519C12.462 13.225 12.5495 13.2138 12.6343 13.1154C12.7191 13.0169 13.0016 12.6879 13.1005 12.5417C13.1966 12.3954 13.2955 12.4179 13.4311 12.4685C13.5667 12.5192 14.29 12.8735 14.4369 12.9466C14.4659 12.9611 14.4931 12.9741 14.5183 12.9862C14.6205 13.0352 14.69 13.0685 14.7195 13.1182C14.7562 13.18 14.7562 13.4725 14.6347 13.8156C14.5104 14.1586 13.9114 14.4877 13.6401 14.513C13.6144 14.5154 13.5889 14.5185 13.5626 14.5217C13.314 14.5518 12.9985 14.5899 11.8743 14.1474C10.489 13.6027 9.57459 12.2511 9.38971 11.9779C9.37512 11.9563 9.36507 11.9414 9.3597 11.9342L9.35657 11.9301C9.27245 11.8175 8.75787 11.129 8.75787 10.4185C8.75787 9.73885 9.0927 9.38499 9.24541 9.22359C9.2551 9.21336 9.26404 9.20391 9.27213 9.19518C9.40772 9.04897 9.56597 9.01242 9.66485 9.01242C9.76377 9.01242 9.86264 9.01242 9.94739 9.01522Z" fill="#1B3D7A"/>
<path fill-rule="evenodd" clip-rule="evenodd" d="M6.11966 17.1037C6.07292 17.2733 6.22741 17.4299 6.39765 17.3854L9.02914 16.6981C9.8598 17.148 10.795 17.387 11.7472 17.387H11.75C14.8834 17.387 17.4375 14.8477 17.4375 11.7262C17.4375 10.2133 16.8469 8.79029 15.7733 7.72165C14.6997 6.65305 13.2729 6.0625 11.75 6.0625C8.61667 6.0625 6.0625 8.60187 6.0625 11.7234C6.06214 12.7164 6.32425 13.6921 6.82252 14.5524L6.11966 17.1037ZM7.64848 14.7799C7.70949 14.5585 7.67901 14.3218 7.56389 14.123C7.14115 13.3931 6.91893 12.5654 6.91923 11.7234C6.91923 9.07909 9.08576 6.91923 11.75 6.91923C13.0464 6.91923 14.256 7.42012 15.1689 8.32886C16.0809 9.2366 16.5808 10.441 16.5808 11.7262C16.5808 14.3704 14.4143 16.5303 11.75 16.5303H11.7472C10.9381 16.5303 10.1431 16.3271 9.43718 15.9447C9.24612 15.8413 9.02287 15.8142 8.81263 15.8692L7.23488 16.2813L7.64848 14.7799Z" fill="#1B3D7A"/>
</svg>
